<?xml version="1.0" encoding="utf-8"?>
<!-- Generator: Adobe Illustrator 26.0.1, SVG Export Plug-In . SVG Version: 6.00 Build 0)  -->
<svg version="1.1" id="Camada_1" xmlns="http://www.w3.org/2000/svg" xmlns:xlink="http://www.w3.org/1999/xlink" x="0px" y="0px"
	 viewBox="0 0 600 157" style="enable-background:new 0 0 600 157;" xml:space="preserve">
<style type="text/css">
	.st0{fill:#1D1D1B;}
	.st1{fill:#FFFFFF;}
</style>
<g>
	<path class="st0" d="M42.2,131.9l6.7-42.2H35.5l-6.7,42.2H0.7l16.4-104h28.1l-5.9,37.2h13.4l5.9-37.2h28.1l-16.4,104H42.2z"/>
	<path class="st0" d="M129.9,26.1c28.5,0,35.2,28.4,31.2,53.8s-19.7,53.8-48.2,53.8s-35.2-28.4-31.2-53.8
		C85.7,54.5,101.4,26.1,129.9,26.1z M117.1,107.5c10.6,0,14.4-21.1,15.4-27.6s3.9-27.6-6.7-27.6c-10.6,0-14.4,21.1-15.4,27.6
		S106.5,107.5,117.1,107.5z"/>
	<path class="st0" d="M181,131.9h-24.9l16.4-104h26.7l12.6,62.6l0.3-0.3l8.8-62.3h24.9l-16.4,104h-27l-11.5-60l-0.3,0.3"/>
	<path class="st0" d="M252.1,27.9h52.3l-3.9,24.5h-24.1L274,66.9h21.6l-3.9,24.5h-21.6l-2.5,15.9h24.1l-3.9,24.5h-52.3L252.1,27.9z"
		/>
	<path class="st0" d="M312.6,131.9l7-44.1l-16.2-59.8h29.2l4.6,32.1h0.3l14.9-32.1h29.1l-33.7,59.8l-7,44.1H312.6z"/>
	<path class="st0" d="M436.8,27.9h33.1c16.5,0,34.7,7.2,31.2,29.6c-1.8,11.7-10.9,20.8-22.7,20.8l0,0.3c13.6,1.1,19.6,9.7,17.4,23.6
		c-2,12.8-12.4,29.6-37.5,29.6h-37.8L436.8,27.9z M454.4,109.4c6.2,0,12.2-3,13.3-10.1c1.1-7-3.8-9.9-10.3-9.9h-2.2l-3.2,20H454.4z
		 M460.2,68.3c5.8,0,11.5-2.3,12.6-9.1c1-6.2-2.9-8.8-8.7-8.8h-2.8l-2.8,17.9H460.2z"/>
	<path class="st0" d="M511.7,27.9H564l-3.9,24.5H536l-2.3,14.5h21.6l-3.9,24.5h-21.6l-2.5,15.9h24.1l-3.9,24.5h-52.3L511.7,27.9z"/>
	<g>
		<path class="st0" d="M575.6,157H386.8L410.5,0h188.8L575.6,157z M390.3,154h182.7L595.8,3H413.1L390.3,154z"/>
	</g>
</g>
</svg>
